# xmcd
#
# Track frame offsets:
#	150
#	14990
#	26037
#	47489
#	62217
#	77107
#	91647
#	103719
#	116882
#	139210
#	153805
#	163755
#	177520
#	184245
#	197123
#	212120
#	225408
#	237128
#
# Disc length: 3355
#
# Revision: 1
# Processed by: cddbd v1.5.1PL0 Copyright (c) Steve Scherf et al.
# Submitted via: CDex 1.51
# Normalized: r0:TDELIM( - )
#
DISCID=f80d1912
DTITLE=Various Artist - A Taste of Tradition
DYEAR=1900
DGENRE=Jazz
TTITLE0=Lead Belly - In New Orleans
TTITLE1=Coleman Hawkins - I Knew Dana
TTITLE2=Lightin' Hopkins - Mana and Papa Hopkins
TTITLE3=Odetta - Jack O' Diamonds
TTITLE4=Woody Herman - Bamba Samba
TTITLE5=Lightin' Hopkins - See See Rider
TTITLE6=Errol Garner - Red Sails in the Sunset
TTITLE7=Coleman Hawkins - Lazy Butterfly
TTITLE8=Big Bill Broonzy - Ridin' on Down
TTITLE9=Big Bill Broonzy - In the Evening
TTITLE10=Odetta - Another Man done Gone
TTITLE11=Lead Belly - Where did You Sleep last Night
TTITLE12=Lightin' Hopkins - Blue Bird, Blue Bird
TTITLE13=Odetta - Muleskinner Blues
TTITLE14=Woody Herman - Wildroot
TTITLE15=Lightin' Hopkins - Trouble in Mind
TTITLE16=Errol Garner - Moonglow
TTITLE17=Big Bill Broonzy - Baby Please Don't Go
EXTD=
EXTT0=
EXTT1=
EXTT2=
EXTT3=
EXTT4=
EXTT5=
EXTT6=
EXTT7=
EXTT8=
EXTT9=
EXTT10=
EXTT11=
EXTT12=
EXTT13=
EXTT14=
EXTT15=
EXTT16=
EXTT17=
PLAYORDER=
